# xmcd
#
# Track frame offsets: 
#        150
#        29162
#        36843
#        67271
#        112552
#        138496
#
# Disc length: 2603 seconds
#
# Revision: 0
# Processed by: cddbd v1.5.1PL0 Copyright (c) Steve Scherf et al.
# Submitted via: ExactAudioCopy v0.95a5
#
DISCID=530a2906
DTITLE=Allmna Brothers Band - Live in Cleveland 2005-07-11 Disc 2
DYEAR=2005
DGENRE=Rock
TTITLE0=Preachin' Blues
TTITLE1=End Of The Line
TTITLE2=High Cost Of Low Living
TTITLE3=Statesboro Blues
TTITLE4=The Same Thing
TTITLE5=Melissa
EXTD=
EXTT0=
EXTT1=
EXTT2=
EXTT3=
EXTT4=
EXTT5=
PLAYORDER=
